<?xml version="1.0" encoding="UTF-8"?>
<svg id="_레이어_2" data-name="레이어 2" xmlns="http://www.w3.org/2000/svg" viewBox="0 0 120 120">
  <defs>
    <style>
      .cls-1 {
        fill: #fff;
      }

      .cls-2 {
        fill: #2693d2;
      }

      .cls-3 {
        fill: #24469a;
      }
    </style>
  </defs>
  <g id="_파란대나무숲_Parandaenamusup" data-name="파란대나무숲Parandaenamusup
BlueBambooForest">
    <g>
      <circle class="cls-1" cx="59.94" cy="60.21" r="59.36"/>
      <g>
        <path class="cls-2" d="M63.18,76.39c2.96-.14,6.12-.22,8.96-1.62,1.75-.86,3.2-2.35,4.12-4.42.73-1.64,1.15-3.49,1.28-5.33.11-1.49.02-2.99-.23-4.44-.1-.57-.18-1.31-.4-1.83-.54-1.26-1.49-2.66-2.5-3.34-3.91-2.63-8.2,1.38-12.03,2.76-1.29.47-8.31,2.92-8.32.14,0-1.14,2.64-2.62,3.39-3.25.94-.79,1.96-1.63,2.68-2.63,1.81-2.5,2.96-5.46,3.27-8.53.27-2.62-.06-5.32-.97-7.79-.45-1.22-1.68-2.23-1.69-3.6,0-1.55,1.56-2.61,1.8-4.12.63-3.84-1.99-7.47-5.84-8.11-1.75-.29-3.58.09-5.06,1.08-.91.61-1.51,1.77-2.57,2.14-1.42.5-3.01-.48-4.42-.63-1.95-.21-3.93-.16-5.87.14-1,.16-2.15.78-3.18.57-1.3-.26-1.64-1.55-2.65-2.22-.83-.55-1.79-.92-2.77-1.08-3.85-.64-7.48,1.95-8.1,5.79-.24,1.44,0,2.93.64,4.24.71,1.45,1.3,2.19.82,3.81-.54,1.83-1.3,3.51-1.5,5.44-.38,3.68.46,7.35,2.26,10.56.87,1.55,1.94,2.98,3.19,4.24,1.19,1.2,3.08,2.19,3.79,3.77.62,1.37-.41,2.73-1.03,3.9-2.89,5.47-5.18,11.46-5.45,17.7-.05,1.27.03,2.56.05,3.83.04,1.88.4,2.78-1.33,3.68-.96.5-2.48,1.72-2.02,3.85.44,2.05,1.71,3.2,3.59,3.08,2.15-.14,1.82-.45,3.6,1.16,1.81,1.64,3.4,3.48,5.4,4.89,2.67,1.89,5.73,3.08,8.8,4.15,2.92,1.02,5.91,1.83,8.99,2.17,2.01.22,4.04.28,6.06.24,4.02-.09,8.32-.11,12.1-1.59,2.34-.92,4.22-2.54,5.37-4.81.91-1.81,1.38-3.85,1.46-5.89.06-1.66-.14-3.32-.55-4.93-.16-.64-.31-1.46-.64-2.05-.8-1.41-2.17-2.99-3.59-3.76-1.79-.99-3.78-1.14-5.77-.79-1,.18-1.97.48-2.94.77-2.99.9-1.89-2.05-2.04-3.9-.18-2.4-1.01-3.31,1.84-3.44Z"/>
        <g>
          <polygon class="cls-3" points="108.7 48.58 101.39 41.39 91.25 39.92 98.56 47.1 108.7 48.58"/>
          <path class="cls-3" d="M102.43,17.57c-4.59-4.59-9.79-8.34-15.42-11.18-4.17-2.1-8.57-3.71-13.13-4.78-4.5-1.06-9.14-1.61-13.88-1.61-16.03,0-31.09,6.24-42.43,17.57C6.24,28.91,0,43.97,0,60s6.24,31.09,17.57,42.43c11.33,11.33,26.4,17.57,42.43,17.57,6.56,0,12.97-1.05,19.02-3.06,2.98-.99,5.88-2.22,8.67-3.68,5.37-2.8,10.34-6.43,14.74-10.83,11.33-11.33,17.57-26.4,17.57-42.43s-6.24-31.09-17.57-42.43ZM86.33,110.21c-.09-.44-.15-.86-.15-1.22v-21.26c0-1.06.47-2.67,1.05-3.56l1.78-2.76c.58-.89.18-1.63-.89-1.63h-17.22c-.88,0-1.31.51-1.1,1.19,1.15.17,2.23.53,3.22,1.08,1.91,1.05,3.5,3.02,4.34,4.51.4.71.59,1.52.75,2.16.03.12.06.25.09.36.47,1.86.68,3.71.61,5.48-.09,2.4-.67,4.71-1.66,6.69-.98,1.95-2.45,3.55-4.31,4.7v3.04c0,1.06-.47,2.67-1.05,3.56l-1.78,2.76c-.13.2-.2.38-.24.56-3.18.55-6.44.85-9.78.85-31.27,0-56.71-25.44-56.71-56.71S28.73,3.29,60,3.29c3.66,0,7.24.35,10.71,1.02l1.09,1.69c.58.89,1.05,2.5,1.05,3.56v21.26c0,1.06-.47,2.67-1.05,3.56l-1.78,2.76c-.58.89-.18,1.63.89,1.63h17.22c1.06,0,1.46-.73.89-1.63l-1.78-2.76c-.58-.89-1.05-2.5-1.05-3.56V9.71c7.74,4.05,14.44,9.83,19.58,16.83l-14.9,11.94,20.43-2.67c3.48,7.34,5.42,15.54,5.42,24.18,0,21.77-12.33,40.71-30.38,50.21Z"/>
          <path class="cls-3" d="M78.7,57.99c.28.65.39,1.37.48,1.95.02.11.03.22.05.32.28,1.66.36,3.3.25,4.89-.15,2.14-.65,4.21-1.45,5.98-1.08,2.42-2.82,4.27-5.03,5.36-.98.48-1.98.82-2.99,1.07.2.17.5.27.89.27h17.22c1.06,0,1.46-.73.89-1.63l-1.78-2.76c-.58-.9-1.05-2.5-1.05-3.56v-21.26c0-1.06.47-2.67,1.05-3.56l1.78-2.76c.58-.89.18-1.63-.89-1.63h-17.22c-1.06,0-1.46.73-.89,1.63l1.78,2.76c.58.89,1.05,2.5,1.05,3.56v4.08c.94.17,1.83.53,2.65,1.08,1.47.98,2.62,2.81,3.2,4.19Z"/>
        </g>
      </g>
    </g>
  </g>
</svg>